<?xml version="1.0" encoding="utf-8"?>
<!-- Generator: Adobe Illustrator 27.5.0, SVG Export Plug-In . SVG Version: 6.00 Build 0)  -->
<svg version="1.1" id="图层_1" xmlns="http://www.w3.org/2000/svg" xmlns:xlink="http://www.w3.org/1999/xlink" x="0px" y="0px"
	 viewBox="0 0 24 24" style="enable-background:new 0 0 24 24;" xml:space="preserve">
<path d="M12,17.5c1.2,0,2.3-0.4,3.2-1.3s1.3-1.9,1.3-3.2s-0.4-2.3-1.3-3.2S13.2,8.5,12,8.5S9.7,8.9,8.8,9.8S7.5,11.8,7.5,13
	s0.4,2.3,1.3,3.2S10.8,17.5,12,17.5z M12,15.5c-0.7,0-1.3-0.2-1.8-0.7S9.5,13.7,9.5,13s0.2-1.3,0.7-1.8c0.5-0.5,1.1-0.7,1.8-0.7
	s1.3,0.2,1.8,0.7c0.5,0.5,0.7,1.1,0.7,1.8s-0.2,1.3-0.7,1.8C13.3,15.3,12.7,15.5,12,15.5z M4,21c-0.5,0-1-0.2-1.4-0.6S2,19.5,2,19V7
	c0-0.5,0.2-1,0.6-1.4C3,5.2,3.5,5,4,5h3.2L9,3h6l1.9,2H20c0.6,0,1,0.2,1.4,0.6C21.8,6,22,6.4,22,7v12c0,0.5-0.2,1-0.6,1.4
	S20.6,21,20,21H4z M4,19h16V7h-4.1l-1.8-2H9.9L8.1,7H4V19z"/>
</svg>
